<svg width="111" height="28" viewBox="0 0 111 28" fill="none" xmlns="http://www.w3.org/2000/svg">
<path d="M67.8703 3.84357H63.834V24.0252H67.8703V3.84357Z" fill="#0F0F0F"/>
<path fill-rule="evenodd" clip-rule="evenodd" d="M71.2332 24.0252V3.84357H73.2513L85.2856 17.5222V3.84357H87.3785V24.0252H85.6593L73.2513 9.89805V24.0252H71.2332Z" fill="#0F0F0F"/>
<path fill-rule="evenodd" clip-rule="evenodd" d="M30.3466 3.84357L36.5506 18.2697L43.3525 3.84357H45.3707L51.6494 18.4192L58.5261 3.84357H60.4696L50.9767 24.0252H49.706L43.203 8.8516V8.62736L35.8779 24.0252H34.6072L25.9365 3.84357H30.3466Z" fill="#0F0F0F"/>
<path fill-rule="evenodd" clip-rule="evenodd" d="M15.1736 24.0252L8.96962 9.52432L2.16766 24.0252H0L9.64235 3.84357H10.913L19.5837 24.0252H15.1736Z" fill="#0F0F0F"/>
<path fill-rule="evenodd" clip-rule="evenodd" d="M100.909 3.76874C105.319 3.76874 109.057 6.53438 110.477 10.4212H106.291C105.319 7.73033 103.301 5.9364 100.909 5.9364C97.6204 5.9364 94.9295 9.52425 94.9295 13.9343C94.9295 18.3444 97.6204 21.9322 100.909 21.9322C103.451 21.9322 105.618 19.7646 106.515 16.7747H104.946H104.871H100.909V14.6818H104.946H106.814H111C110.626 19.9141 106.216 24.0999 100.909 24.0999C95.3032 24.0999 90.7437 19.5403 90.7437 13.9343C90.7437 8.3283 95.3032 3.76874 100.909 3.76874Z" fill="#0F0F0F"/>
<path fill-rule="evenodd" clip-rule="evenodd" d="M22.7237 24.0251L13.9783 3.84349L18.3883 3.76874L27.059 24.0251H22.7237Z" fill="#E2000F"/>
</svg>
